<svg id="eG526Cz1lnO1" xmlns="http://www.w3.org/2000/svg" xmlns:xlink="http://www.w3.org/1999/xlink" viewBox="0 0 512 512" shape-rendering="geometricPrecision" text-rendering="geometricPrecision" project-id="ef8d5c7d2dd44a5da93c8190e05bf916" export-id="4867f7bec69745a2bb09102d4fdaf58d" cached="false"><g><path d="M508.882,250.515L235.601,87.36c-1.952-1.142-4.438-1.215-6.462-.049-1.97,1.116-3.204,3.289-3.204,5.572v123.61L9.646,87.36c-1.95-1.142-4.436-1.215-6.461-.049C1.252,88.428,0,90.601,0,92.883v163.143v163.056c0,2.357,1.252,4.492,3.185,5.586c2.025,1.19,4.511,1.116,6.461-.025L225.935,295.511v123.572c0,2.357,1.234,4.492,3.204,5.586c2.025,1.19,4.511,1.116,6.462-.025L508.882,261.489c1.964-1.142,3.118-3.204,3.118-5.462c0-2.272-1.154-4.407-3.118-5.512Z" transform="matrix(-1 0 0-1 512 512.000412)" fill="#fff"/></g></svg>
